<svg width="27" height="21" viewBox="0 0 27 21" fill="none" xmlns="http://www.w3.org/2000/svg">
<path d="M22.8454 1.71011C21.1354 0.912941 19.2839 0.334354 17.3553 5.91421e-05C17.3383 -0.000481648 17.3215 0.00269169 17.306 0.00935609C17.2904 0.0160205 17.2765 0.0260141 17.2653 0.0386319C17.0338 0.462929 16.7638 1.0158 16.5838 1.4401C14.5382 1.13152 12.4578 1.13152 10.4122 1.4401C10.2322 1.00294 9.9622 0.462929 9.71791 0.0386319C9.70505 0.0129169 9.66648 5.91421e-05 9.6279 5.91421e-05C7.69928 0.334354 5.86066 0.912941 4.13775 1.71011C4.1249 1.71011 4.11204 1.72296 4.09918 1.73582C0.601942 6.96882 -0.36237 12.0604 0.113357 17.1005C0.113357 17.1262 0.126214 17.152 0.151929 17.1648C2.46628 18.862 4.69063 19.8906 6.88926 20.5721C6.92783 20.5849 6.9664 20.5721 6.97926 20.5463C7.49356 19.8392 7.95643 19.0934 8.35501 18.3091C8.38073 18.2577 8.35501 18.2063 8.30358 18.1934C7.5707 17.9105 6.8764 17.5763 6.19495 17.1905C6.14352 17.1648 6.14352 17.0877 6.1821 17.0491C6.32353 16.9462 6.46496 16.8305 6.60639 16.7277C6.63211 16.7019 6.67068 16.7019 6.69639 16.7148C11.1194 18.7334 15.8895 18.7334 20.2611 16.7148C20.2868 16.7019 20.3253 16.7019 20.3511 16.7277C20.4925 16.8434 20.6339 16.9462 20.7754 17.062C20.8268 17.1005 20.8268 17.1777 20.7625 17.2034C20.0939 17.602 19.3867 17.9234 18.6539 18.2063C18.6024 18.2191 18.5896 18.2834 18.6024 18.322C19.0139 19.1063 19.4767 19.852 19.9782 20.5592C20.0168 20.5721 20.0553 20.5849 20.0939 20.5721C22.3054 19.8906 24.5297 18.862 26.8441 17.1648C26.8698 17.152 26.8827 17.1262 26.8827 17.1005C27.4484 11.2761 25.9441 6.22309 22.8968 1.73582C22.884 1.72296 22.8711 1.71011 22.8454 1.71011ZM9.0236 14.0276C7.69928 14.0276 6.59353 12.8061 6.59353 11.3018C6.59353 9.79747 7.67356 8.57601 9.0236 8.57601C10.3865 8.57601 11.4665 9.81033 11.4537 11.3018C11.4537 12.8061 10.3736 14.0276 9.0236 14.0276ZM17.9853 14.0276C16.661 14.0276 15.5552 12.8061 15.5552 11.3018C15.5552 9.79747 16.6352 8.57601 17.9853 8.57601C19.3482 8.57601 20.4282 9.81033 20.4153 11.3018C20.4153 12.8061 19.3482 14.0276 17.9853 14.0276Z" fill="#C6F806"/>
</svg>
