<svg width="27" height="21" viewBox="0 0 27 21" fill="none" xmlns="http://www.w3.org/2000/svg">
<g id="Frame 61">
<path id="Vector" d="M27 2.76697V18.4146C27 19.4316 26.1765 20.2551 25.1595 20.2551H20.8631V9.8241L13.5 15.3478L6.13688 9.8241V20.2562H1.8405C1.59871 20.2562 1.35928 20.2086 1.13591 20.116C0.912539 20.0235 0.709593 19.8878 0.538672 19.7168C0.367751 19.5457 0.232205 19.3427 0.139777 19.1193C0.0473494 18.8958 -0.000147451 18.6564 3.43858e-07 18.4146V2.76697C3.43858e-07 0.491097 2.59763 -0.808278 4.41788 0.557472L6.13688 1.84785L13.5 7.36935L20.8631 1.8456L22.5821 0.557472C24.4013 -0.807153 27 0.491097 27 2.76697Z" fill="#C6F806"/>
</g>
</svg>
