<?xml version="1.0" encoding="UTF-8"?>
<svg version="1.1" xmlns="http://www.w3.org/2000/svg" width="60" height="28">
<path d="M0 0 C1.65 0 3.3 0 5 0 C5 3.3 5 6.6 5 10 C8.96 10 12.92 10 17 10 C17 6.7 17 3.4 17 0 C18.65 0 20.3 0 22 0 C22 8.58 22 17.16 22 26 C20.35 26 18.7 26 17 26 C17 22.7 17 19.4 17 16 C13.04 16 9.08 16 5 16 C5 19.3 5 22.6 5 26 C3.35 26 1.7 26 0 26 C0 17.42 0 8.84 0 0 Z " fill="#FFFFFF" transform="translate(0,0)"/>
<path d="M0 0 C3.0625 2.5625 3.0625 2.5625 5 5 C3.75 6.5625 3.75 6.5625 2 8 C0.25 7.75 0.25 7.75 -2 7 C-6.79674503 5.86687246 -6.79674503 5.86687246 -11.375 7.125 C-13.43957645 9.50720359 -13.92488332 10.84509951 -14 14 C-13.15254366 16.85701707 -13.15254366 16.85701707 -11 19 C-6.92420151 20.207644 -4.91161549 20.44610971 -1.0625 18.5625 C-0.381875 18.046875 0.29875 17.53125 1 17 C2.32 17.99 3.64 18.98 5 20 C3.97427701 23.3051074 2.93092146 24.04006555 -0.125 25.8125 C-5.29255501 27.78263035 -9.77514369 26.98882503 -14.8125 24.75 C-18.1314068 22.09487456 -19.66877104 19.9509386 -20.390625 15.69921875 C-20.70956711 10.92233582 -20.38149775 7.78087867 -17.3125 4 C-12.11904504 -1.12098815 -6.98950647 -2.02228035 0 0 Z " fill="#FFFFFF" transform="translate(47,1)"/>
<path d="M0 0 C2.18703385 -0.37907282 2.18703385 -0.37907282 4 -1 C4 0.65 4 2.3 4 4 C0.04 4 -3.92 4 -8 4 C-8.33 2.68 -8.66 1.36 -9 0 C-5.5275795 -0.86810513 -3.41868609 -0.88224157 0 0 Z M2 0 C3 2 3 2 3 2 Z " fill="#FFFFFF" transform="translate(56,13)"/>
</svg>
